<svg xmlns="http://www.w3.org/2000/svg" width="1024" height="1024" viewBox="0 0 1024 1024">
<g>
<path d="M 355.50 648.34 C319.67,644.02 291.41,632.11 270.07,612.36 C244.65,588.83 232.67,552.25 238.54,516.08 C241.17,499.85 247.03,485.26 256.83,470.57 C261.60,463.43 278.93,445.16 286.94,438.84 L 291.39 435.33 L 288.55 430.42 C276.75,409.96 255.35,390.65 227.88,375.68 C223.27,373.17 207.77,365.51 193.44,358.67 C159.74,342.59 124.65,325.01 109.50,316.64 C102.90,312.99 97.22,310.00 96.87,310.00 C95.29,310.00 93.79,316.45 94.21,321.47 C95.88,341.67 126.47,370.56 161.45,384.98 C170.00,388.51 173.26,391.00 169.33,391.00 C166.49,391.00 154.56,386.43 147.20,382.52 C143.55,380.59 140.21,379.00 139.78,379.00 C138.02,379.00 139.19,385.06 142.07,390.82 C144.04,394.77 147.16,398.78 150.82,402.04 C161.00,411.15 180.41,419.02 196.38,420.52 C201.39,420.99 203.96,421.64 203.71,422.37 C203.17,424.04 194.47,424.35 186.69,422.99 C182.94,422.33 179.63,422.04 179.34,422.33 C178.02,423.65 181.49,430.20 185.45,433.85 C195.13,442.77 217.73,450.32 229.48,448.55 C235.23,447.69 236.34,449.54 231.34,451.63 C225.70,453.99 211.12,451.64 199.43,446.50 C194.35,444.27 194.35,444.27 187.15,446.09 C171.73,450.01 158.06,449.53 143.77,444.56 C135.70,441.75 135.17,442.64 140.98,449.24 C151.80,461.54 172.31,467.60 189.43,463.57 C193.24,462.68 196.84,461.55 197.43,461.07 C198.87,459.89 202.66,459.32 202.85,460.25 C202.93,460.66 203.00,461.39 203.00,461.88 C203.00,463.03 194.52,466.64 189.68,467.54 L 185.85 468.25 L 189.12 471.63 C190.92,473.49 194.70,475.87 197.52,476.92 C204.97,479.71 217.59,481.35 222.69,480.19 C225.84,479.47 227.00,479.55 227.36,480.50 C228.59,483.71 216.13,485.09 204.89,482.99 C197.66,481.65 187.83,476.71 184.26,472.64 C181.62,469.64 180.65,469.25 174.21,468.66 C154.41,466.82 139.15,457.62 133.04,443.83 C131.80,441.03 129.34,438.17 126.08,435.75 C116.76,428.80 109.57,417.63 105.58,403.92 C104.12,398.91 103.36,397.95 97.73,394.00 C75.79,378.61 63.33,358.16 60.52,332.90 C59.98,328.05 59.19,326.46 54.59,320.90 C27.77,288.50 10.68,243.00 25.34,243.00 C26.65,243.00 33.46,249.16 44.44,260.28 C82.02,298.33 101.41,310.71 185.00,350.01 C213.17,363.25 237.15,375.67 246.66,381.94 C255.75,387.93 269.55,399.33 276.35,406.46 C281.04,411.38 289.44,423.05 292.21,428.50 C293.33,430.70 294.37,432.64 294.53,432.82 C294.68,433.00 298.53,430.97 303.09,428.33 C308.29,425.30 311.95,422.43 312.94,420.60 C327.08,394.24 349.46,375.24 380.44,363.28 C414.79,350.01 459.78,349.91 493.47,363.02 C534.82,379.11 559.09,416.41 551.62,452.40 C547.04,474.50 529.25,493.44 506.35,500.62 L 498.19 503.18 L 500.06 507.39 C501.08,509.71 502.22,515.18 502.58,519.55 C505.44,553.80 469.86,582.83 416.19,590.05 C405.21,591.53 387.64,590.82 375.07,588.41 L 366.50 586.76 L 356.00 589.46 C336.06,594.60 310.64,593.87 298.58,587.82 C289.05,583.03 285.00,578.19 285.00,571.55 C285.00,562.02 299.79,558.26 318.59,562.99 C326.58,565.01 341.73,570.81 347.78,574.18 C352.09,576.57 352.14,576.56 360.68,572.51 C374.04,566.17 392.85,552.13 399.28,543.70 L 401.92 540.23 L 389.21 539.74 C368.66,538.93 356.15,534.29 345.26,523.42 C337.19,515.38 334.74,509.97 334.38,499.37 L 334.10 491.25 L 325.80 482.87 C313.03,470.01 308.38,458.39 309.24,441.55 C309.50,436.57 310.07,431.67 310.50,430.65 C311.26,428.86 311.17,428.86 307.90,430.54 C293.38,438.00 273.72,454.94 262.89,469.31 C245.51,492.37 237.79,523.14 242.43,550.87 C248.38,586.48 268.05,612.08 302.75,629.41 C340.87,648.44 394.89,650.07 439.50,633.52 C451.42,629.10 466.93,621.10 476.25,614.57 C482.08,610.49 483.00,610.12 483.00,611.84 C483.00,615.97 463.20,628.40 444.22,636.18 C431.29,641.48 411.03,646.57 397.58,647.91 C387.45,648.92 362.43,649.17 355.50,648.34 ZM 429.28 582.71 C440.37,579.75 454.72,573.27 464.12,566.98 C467.63,564.63 474.77,558.39 480.00,553.10 C495.55,537.37 500.61,524.48 496.62,510.77 C495.74,507.74 494.45,504.80 493.76,504.25 C492.96,503.60 490.32,503.53 486.50,504.06 C480.83,504.84 480.20,505.21 475.00,510.88 C464.78,522.04 452.51,529.96 439.23,534.00 C432.20,536.13 431.81,536.43 424.15,545.39 C411.70,559.94 398.72,570.37 382.27,579.03 C377.74,581.42 374.22,583.56 374.45,583.78 C375.72,585.06 387.54,585.81 402.50,585.58 C417.12,585.35 420.87,584.95 429.28,582.71 ZM 339.75 580.57 C342.64,579.66 345.00,578.60 345.00,578.20 C345.00,577.18 329.86,570.62 321.50,568.02 C308.27,563.90 292.47,564.38 290.02,568.97 C288.81,571.23 289.95,574.79 292.64,577.11 C294.36,578.61 300.78,581.25 305.50,582.40 C310.00,583.50 334.59,582.19 339.75,580.57 ZM 410.04 532.50 C413.57,529.17 428.35,512.64 452.50,485.02 C461.30,474.96 472.03,463.44 476.35,459.43 L 484.19 452.13 L 481.43 447.05 C464.27,415.52 411.28,401.84 354.00,414.15 C342.16,416.70 328.21,421.18 321.00,424.77 C316.03,427.24 315.39,427.94 314.33,432.00 C310.03,448.55 315.64,467.74 328.42,480.17 C331.72,483.38 334.88,486.00 335.46,486.00 C336.03,486.00 337.74,483.63 339.25,480.73 C350.06,460.05 376.03,446.90 403.41,448.25 C418.35,448.99 427.75,452.92 432.96,460.61 C436.42,465.71 437.00,475.14 434.19,480.58 C426.35,495.77 399.02,505.04 370.86,502.06 C361.60,501.08 348.17,497.53 342.40,494.53 C340.88,493.75 339.21,493.37 338.69,493.69 C337.13,494.66 338.76,506.88 341.10,511.71 C345.78,521.38 358.01,530.11 371.50,533.42 C381.02,535.75 381.84,535.83 394.68,535.66 C406.76,535.50 406.90,535.47 410.04,532.50 ZM 442.23 529.34 C450.25,526.22 460.08,519.73 467.54,512.61 C474.82,505.67 476.49,503.00 473.55,503.00 C469.25,503.00 464.64,498.41 465.74,495.22 C466.59,492.76 473.76,490.00 479.31,490.00 L 484.70 490.00 L 486.48 482.44 C488.28,474.79 488.21,462.81 486.35,460.95 C484.84,459.44 470.13,478.84 449.74,509.25 C441.47,521.59 435.77,531.00 436.56,531.00 C437.33,531.00 439.88,530.25 442.23,529.34 ZM 490.54 499.94 C490.90,499.35 490.37,497.97 489.37,496.86 L 487.55 494.84 L 485.77 497.03 C484.80,498.24 484.00,499.62 484.00,500.11 C484.00,501.37 489.75,501.22 490.54,499.94 ZM 479.93 497.37 C482.64,493.92 482.54,493.00 479.47,493.00 C476.17,493.00 470.00,495.59 470.00,496.98 C470.00,498.16 473.50,499.84 476.18,499.94 C477.10,499.97 478.79,498.81 479.93,497.37 ZM 402.47 496.32 C415.86,493.28 425.31,487.74 429.60,480.43 C431.80,476.67 432.17,475.03 431.80,470.62 C431.23,463.67 428.14,459.41 421.48,456.36 C414.10,452.98 405.88,451.70 395.50,452.31 C378.59,453.30 364.26,459.09 353.24,469.39 C348.06,474.24 340.00,485.76 340.00,488.33 C340.00,490.46 357.71,496.51 368.35,498.01 C376.48,499.16 393.77,498.30 402.47,496.32 ZM 510.68 495.05 C541.84,480.54 555.68,450.58 545.52,419.62 C538.67,398.74 522.32,381.51 498.50,370.05 C483.62,362.89 468.98,359.34 449.00,358.06 C404.33,355.19 362.05,369.63 334.91,397.04 C328.04,403.99 317.07,419.41 318.20,420.54 C318.46,420.79 321.43,419.87 324.81,418.50 C348.16,409.01 383.25,403.70 407.67,405.97 C437.98,408.79 457.04,415.72 472.88,429.72 C478.04,434.27 486.01,444.54 487.23,448.20 C487.48,448.94 491.22,446.44 496.57,441.95 C519.02,423.13 529.09,417.78 533.06,422.58 C534.67,424.51 532.93,425.96 528.98,425.98 C524.19,426.01 509.08,436.30 495.32,448.90 C490.73,453.11 489.89,454.38 490.46,456.25 C492.10,461.59 492.22,478.49 490.65,484.45 L 489.09 490.40 L 492.69 494.80 C496.15,499.02 496.48,499.18 500.40,498.57 C502.66,498.21 507.28,496.63 510.68,495.05 ZM 179.18 443.87 C184.03,443.25 188.00,442.42 188.00,442.04 C188.00,441.65 186.24,439.92 184.08,438.19 C180.13,435.01 174.48,425.20 174.73,421.94 C174.91,419.61 166.88,416.34 156.54,414.53 C140.66,411.76 129.72,408.77 117.15,403.78 C113.11,402.17 109.63,401.04 109.40,401.26 C109.18,401.49 109.90,404.30 111.00,407.51 C116.96,424.82 130.80,437.64 148.30,442.04 C161.22,445.30 165.90,445.57 179.18,443.87 ZM 152.40 408.17 C141.95,400.60 134.25,387.81 135.31,379.77 C135.80,376.06 135.73,375.98 127.65,370.38 C123.17,367.27 118.58,363.89 117.45,362.87 C116.31,361.85 111.91,360.13 107.66,359.04 C93.88,355.52 83.24,349.45 70.72,337.98 C67.02,334.59 64.00,332.43 64.01,333.16 C64.03,337.17 68.54,352.39 71.50,358.48 C83.59,383.25 105.26,398.37 142.50,408.01 C156.39,411.61 157.16,411.62 152.40,408.17 ZM 103.97 349.28 C93.29,337.62 87.82,320.99 91.50,311.37 C93.09,307.21 93.11,306.64 91.71,305.86 C88.02,303.79 72.74,292.00 63.88,284.38 C58.58,279.83 48.01,269.56 40.38,261.56 C32.74,253.56 25.95,247.01 25.27,247.00 C21.69,246.99 23.03,256.26 28.68,270.50 C40.97,301.51 69.34,336.86 91.48,348.75 C98.21,352.36 108.09,356.15 108.88,355.42 C109.09,355.23 106.88,352.47 103.97,349.28 ZM 560.79 583.33 C556.78,582.66 552.34,577.97 551.00,573.00 C549.78,568.48 550.38,561.03 552.23,557.57 C553.25,555.67 553.23,555.67 550.77,557.57 C549.40,558.63 543.83,563.23 538.39,567.79 C521.80,581.70 510.31,585.92 502.32,581.05 C499.73,579.47 499.01,578.25 498.44,574.46 C496.79,563.47 501.77,555.72 531.58,522.90 C538.77,514.98 554.29,497.25 566.06,483.50 C606.42,436.35 648.68,389.15 660.29,378.25 L 665.88 373.00 L 674.94 373.00 C679.92,373.00 683.99,373.34 683.98,373.75 C683.97,374.16 682.05,375.84 679.73,377.48 C664.68,388.08 631.46,422.84 588.42,473.00 C551.49,516.06 536.96,532.96 529.62,541.42 C520.25,552.23 511.86,563.25 509.58,567.76 C508.68,569.55 507.84,572.70 507.72,574.76 C507.51,578.37 507.62,578.51 511.06,578.80 C519.36,579.50 534.96,568.07 558.97,543.71 C582.72,519.61 595.60,510.87 613.79,506.47 C619.87,505.00 621.75,504.91 625.09,505.91 C633.24,508.35 632.99,516.43 624.50,524.69 C616.20,532.76 603.48,538.36 585.22,541.97 C580.12,542.98 575.36,544.28 574.65,544.87 C572.02,547.06 562.25,561.64 560.65,565.77 C558.35,571.72 558.58,574.67 561.59,577.68 C563.97,580.06 564.65,580.22 570.08,579.65 C579.92,578.62 595.88,569.54 610.38,556.72 C617.42,550.50 627.55,539.50 646.50,517.50 C653.10,509.83 664.03,497.63 670.79,490.39 C685.56,474.55 691.00,471.48 691.00,478.96 C691.00,481.35 690.15,482.29 685.75,484.80 C673.76,491.64 672.47,495.38 675.05,515.94 C677.02,531.63 672.44,546.83 662.41,557.93 L 657.50 563.37 L 663.50 559.56 C672.72,553.70 681.04,545.97 695.77,529.54 C703.20,521.27 714.94,508.26 721.88,500.63 C728.82,493.00 735.62,485.36 737.00,483.64 C742.63,476.63 744.76,475.00 748.34,475.00 C754.95,475.00 753.71,479.09 745.44,484.58 C742.40,486.60 738.69,489.85 737.20,491.80 C734.24,495.68 734.34,494.19 735.08,524.50 C735.34,534.95 735.09,537.22 733.17,542.11 C730.72,548.33 726.86,554.47 721.61,560.48 C719.70,562.67 718.26,564.59 718.41,564.74 C719.25,565.58 737.51,552.32 743.31,546.65 C747.06,542.99 750.32,540.00 750.56,540.00 C752.29,540.00 750.25,543.88 746.34,548.07 C739.68,555.18 729.58,562.37 720.42,566.52 C716.06,568.49 706.63,573.05 699.46,576.65 C688.41,582.19 685.39,583.28 679.74,583.73 C672.03,584.35 668.00,582.60 668.00,578.63 C668.00,573.34 673.60,571.11 689.87,569.95 C700.70,569.17 702.63,568.75 705.47,566.59 C710.31,562.90 717.71,551.41 720.60,543.11 C723.42,535.00 724.87,518.31 723.54,509.43 L 722.80 504.50 L 719.65 508.14 C703.79,526.44 686.94,544.80 681.33,549.90 C672.38,558.01 666.88,561.61 650.28,570.21 C642.70,574.13 633.97,578.65 630.87,580.25 C623.70,583.97 614.27,585.06 610.53,582.61 C607.19,580.42 607.33,577.74 610.97,574.68 C614.19,571.97 616.77,571.37 630.72,570.11 C638.52,569.41 640.51,568.85 643.56,566.52 C650.55,561.19 657.79,549.80 661.68,538.00 C663.49,532.53 664.73,507.33 663.27,505.87 C662.60,505.20 660.14,507.33 655.88,512.26 C619.25,554.73 607.06,566.41 588.92,576.38 C578.29,582.23 568.56,584.63 560.79,583.33 ZM 628.53 578.21 C630.71,577.08 633.40,575.42 634.50,574.51 C636.38,572.97 635.95,572.91 627.56,573.50 C615.81,574.33 609.59,576.91 611.58,580.13 C612.65,581.86 623.94,580.59 628.53,578.21 ZM 686.21 578.99 C689.12,577.88 692.62,576.05 694.00,574.91 L 696.50 572.85 L 687.00 573.34 C676.09,573.91 672.00,575.13 672.00,577.81 C672.00,578.83 672.30,579.97 672.67,580.33 C673.99,581.66 681.04,580.96 686.21,578.99 ZM 593.97 536.40 C609.14,532.25 620.57,525.67 624.94,518.59 C627.74,514.07 627.58,511.22 624.47,509.80 C617.93,506.82 601.51,516.66 585.03,533.43 C580.02,538.54 579.77,539.00 582.03,539.00 C583.39,539.00 588.76,537.83 593.97,536.40 ZM 790.30 482.95 C785.33,481.97 782.00,480.34 782.00,478.89 C782.00,478.20 783.13,478.13 785.25,478.67 C787.04,479.13 793.00,479.50 798.50,479.50 C810.25,479.50 817.41,477.62 823.91,472.84 L 828.33 469.59 L 823.91 468.44 C817.37,466.73 812.74,464.54 810.60,462.14 C808.10,459.34 810.06,459.26 816.12,461.92 C823.80,465.29 835.33,466.40 845.06,464.69 C858.50,462.33 864.29,459.68 871.60,452.51 C877.90,446.34 879.78,443.08 876.25,444.48 C863.26,449.62 842.22,450.78 828.23,447.13 C820.46,445.11 819.76,445.07 816.81,446.60 C806.97,451.69 792.32,454.25 785.66,452.05 C783.65,451.39 782.00,450.22 782.00,449.46 C782.00,448.37 783.32,448.19 788.25,448.63 C801.01,449.77 818.60,443.66 828.69,434.59 C833.65,430.13 837.96,423.63 836.75,422.42 C836.39,422.05 833.26,422.26 829.79,422.87 C819.51,424.69 813.50,424.75 813.50,423.02 C813.50,421.93 815.71,421.22 822.00,420.32 C846.18,416.87 868.97,404.08 875.12,390.53 C876.89,386.66 877.67,380.00 876.37,380.00 C876.03,380.00 873.44,381.30 870.62,382.89 C863.94,386.67 851.72,391.00 847.74,391.00 C843.35,391.00 845.22,389.47 853.08,386.62 C864.99,382.29 874.11,377.20 888.00,367.10 C904.22,355.31 914.49,344.61 919.70,334.06 C922.97,327.43 924.10,315.76 921.76,312.64 C920.43,310.87 919.87,311.06 910.43,316.52 C897.16,324.19 856.14,344.60 832.00,355.54 C806.68,367.02 787.05,376.74 777.31,382.63 C750.61,398.75 733.02,417.80 719.14,445.57 C715.12,453.63 712.98,456.98 712.54,455.90 C711.65,453.68 716.18,442.13 721.69,432.54 C740.79,399.35 764.16,381.57 824.00,354.70 C864.47,336.54 895.24,321.14 914.87,309.25 C930.40,299.84 956.15,279.21 965.89,268.39 C974.02,259.35 987.48,245.82 989.34,244.82 C992.35,243.21 995.69,244.67 996.89,248.12 C1000.54,258.60 979.92,301.77 960.99,323.27 C957.38,327.37 957.00,328.33 957.00,333.24 C957.00,344.65 950.95,361.75 943.23,372.17 C937.44,379.99 925.51,390.89 917.38,395.79 C910.56,399.89 910.24,400.26 909.65,404.57 C908.50,412.90 902.28,424.86 895.77,431.22 C894.24,432.72 890.51,435.78 887.49,438.01 C884.43,440.27 882.00,442.85 882.00,443.84 C882.00,446.84 876.32,454.75 871.80,458.05 C862.45,464.87 853.65,467.95 839.00,469.54 C833.49,470.13 831.91,470.78 828.62,473.74 C819.54,481.92 803.99,485.65 790.30,482.95 ZM 869.83 442.12 C887.56,436.16 898.71,425.70 903.97,410.08 C905.14,406.61 905.92,403.59 905.70,403.37 C905.49,403.15 902.20,404.16 898.40,405.60 C887.05,409.92 879.18,411.95 866.00,413.95 C854.00,415.76 844.78,418.18 842.35,420.14 C841.72,420.65 840.93,422.58 840.58,424.42 C839.75,428.85 835.19,435.00 829.52,439.33 L 824.92 442.84 L 830.21 443.87 C833.12,444.43 836.40,445.12 837.50,445.40 C838.60,445.67 844.22,445.75 850.00,445.58 C858.54,445.31 862.24,444.67 869.83,442.12 ZM 885.00 405.96 C905.58,400.01 926.07,387.42 936.53,374.27 C944.74,363.96 953.00,344.93 953.00,336.31 L 953.00 332.83 L 946.75 338.52 C933.57,350.52 918.56,358.74 906.58,360.54 C903.50,361.00 900.64,362.25 898.64,364.01 C896.91,365.53 892.20,369.04 888.16,371.82 L 880.83 376.87 L 880.65 382.69 C880.53,386.59 879.67,390.07 878.04,393.28 C875.82,397.66 867.70,406.12 861.88,410.14 C859.65,411.67 859.99,411.69 867.00,410.39 C871.12,409.62 879.22,407.63 885.00,405.96 ZM 913.98 355.01 C937.41,346.44 965.15,317.48 981.99,284.00 C987.30,273.43 992.37,259.75 993.37,253.22 C994.67,244.78 992.14,246.37 973.57,265.61 C956.78,283.02 944.49,293.88 930.81,303.41 L 924.13 308.06 L 925.56 311.50 C927.42,315.94 927.39,323.32 925.50,329.69 C923.80,335.43 915.83,348.04 911.14,352.44 C909.41,354.05 908.00,355.74 908.00,356.19 C908.00,357.24 907.69,357.31 913.98,355.01 Z" fill="rgba(0,0,0,1)"/>
</g>
</svg>